<svg width="219" height="352" viewBox="0 0 219 352" fill="none" xmlns="http://www.w3.org/2000/svg">
<g style="mix-blend-mode:lighten">
<path d="M71.3856 226.088C63.6928 276.45 89.2724 300.962 103.024 306.923C110.556 297.739 106.325 266.366 108.017 222.196C110.373 160.697 171.641 102.39 130.915 60.0215C153.681 127.503 79.0784 175.726 71.3856 226.088Z" fill="url(#paint0_linear_189_521)"/>
<path d="M85.6337 252.12C76.887 302.31 101.947 327.353 115.571 333.601C123.293 324.576 119.721 293.121 122.339 248.997C125.983 187.561 188.46 130.551 148.631 87.3379C169.977 155.281 94.3805 201.931 85.6337 252.12Z" fill="url(#paint1_linear_189_521)"/>
<path d="M51.8884 273.231C58.8357 323.701 90.33 339.926 105.209 341.73C109.818 330.783 96.8397 301.908 85.9004 259.081C70.6695 199.452 112.826 126.128 61.7322 97.0912C102.749 155.312 44.9411 222.76 51.8884 273.231Z" fill="url(#paint2_linear_189_521)"/>
<path d="M133.435 281.398C129.83 321.678 105.47 335.731 93.7409 337.723C89.6734 329.216 98.8748 305.832 105.933 271.461C115.761 223.607 79.5692 167.058 118.986 142.107C88.66 189.817 137.04 241.117 133.435 281.398Z" fill="url(#paint3_linear_189_521)"/>
<path d="M161.027 241.772C154.099 311.346 117.55 337.795 100.141 342.323C94.4698 328.085 108.994 287.025 120.789 227.283C137.211 144.104 85.9876 50.3146 145.216 3.71582C98.5141 88.578 167.954 172.198 161.027 241.772Z" fill="url(#paint4_linear_189_521)"/>
</g>
<defs>
<linearGradient id="paint0_linear_189_521" x1="91.789" y1="150.672" x2="95.0684" y2="307.09" gradientUnits="userSpaceOnUse">
<stop stop-color="#F5FBAB" stop-opacity="0.7"/>
<stop offset="0.221154" stop-color="#F6E099" stop-opacity="0.731731"/>
<stop offset="1" stop-color="#FF0004"/>
</linearGradient>
<linearGradient id="paint1_linear_189_521" x1="107.613" y1="177.148" x2="107.613" y2="333.601" gradientUnits="userSpaceOnUse">
<stop offset="0.379808" stop-color="#F5FBAB" stop-opacity="0.7"/>
<stop offset="1" stop-color="#FF0004"/>
</linearGradient>
<linearGradient id="paint2_linear_189_521" x1="50.0016" y1="195.126" x2="97.6293" y2="344.152" gradientUnits="userSpaceOnUse">
<stop stop-color="white" stop-opacity="0.7"/>
<stop offset="0.379808" stop-color="#F5FBAB" stop-opacity="0.7"/>
<stop offset="1" stop-color="#FF0004"/>
</linearGradient>
<linearGradient id="paint3_linear_189_521" x1="131.985" y1="219.397" x2="99.842" y2="339.357" gradientUnits="userSpaceOnUse">
<stop offset="0.379808" stop-color="#F5FBAB" stop-opacity="0.7"/>
<stop offset="1" stop-color="#FF0004"/>
</linearGradient>
<linearGradient id="paint4_linear_189_521" x1="161.349" y1="135.339" x2="109.09" y2="344.558" gradientUnits="userSpaceOnUse">
<stop offset="0.00961538" stop-color="white" stop-opacity="0.7"/>
<stop offset="0.471154" stop-color="#F8B87E" stop-opacity="0.780097"/>
<stop offset="1" stop-color="#FF0004"/>
</linearGradient>
</defs>
</svg>
