<svg width="263" height="242" viewBox="0 0 263 242" fill="none" xmlns="http://www.w3.org/2000/svg">
<g filter="url(#filter0_d_224_22327)">
<mask id="path-1-outside-1_224_22327" maskUnits="userSpaceOnUse" x="41.0996" y="41.0996" width="180" height="160" fill="black">
<rect fill="white" x="41.0996" y="41.0996" width="180" height="160"/>
<path d="M179.74 196.088V165.215L175.256 165.191V147.922H170.544V144.603H165.832V147.91L161.348 147.927V165.197L156.636 165.209V196.088L151.864 196.1L151.871 178.824L147.407 178.818L147.413 196.1L142.668 196.094V178.824L138.177 178.795V147.933L133.452 147.91L133.439 144.597L128.727 144.609L128.734 141.126L119.511 141.12L119.504 134.306H114.786L114.799 130.823H110.315L110.301 127.328L105.57 127.316L105.563 117.208H91.6284V113.707H82.4255L82.4322 106.911L77.6871 106.905L77.6938 96.6078L72.9754 96.6137L72.9821 93.0832L77.6871 93.0891L77.6938 89.6293L72.9821 89.6352V86.2814L77.6871 86.2932L77.6938 82.804L72.9754 82.8158L72.9821 79.3265L68.5043 79.3206L68.491 76.014H63.7459L63.7592 72.507L59.0342 72.5129L59.0475 65.7171L54.5497 65.7112L54.5564 58.7326L49.8247 58.7267L49.8113 55.4142H45.0996V48.4062H49.8514L49.838 51.8955L54.5831 51.8837V55.3966L63.7793 55.3907V58.709L68.5244 58.7032L68.5177 62.1866L73.0022 62.1983L73.0088 65.6935L77.7205 65.6876V69.0119L82.4656 69.0001L82.4523 72.4835L86.9434 72.4953L86.9501 75.9904L91.6551 75.9845V79.3088H96.3668V75.9963H100.878L100.885 79.3088H105.563L105.57 75.9963L110.301 75.9845L110.308 72.4953L114.799 72.4894L114.786 69.006H119.504V62.1924L128.734 62.1866V55.3907H138.177L138.184 51.8955L142.675 51.8896L142.662 48.4062L147.38 48.4121V45.0996H151.891L151.898 48.4121L156.643 48.4062V51.9132H151.891L151.898 55.3907L156.63 55.4025V58.7267L151.891 58.7385L151.898 62.1866L156.63 62.1983L156.643 65.7112H151.898L151.891 69.0178L147.407 69.0296L147.413 72.5129L142.695 72.507V79.3265H133.472L133.479 82.8099L128.754 82.804L128.767 86.3109H119.538L119.531 89.6057L124.276 89.5998V93.1127L119.531 93.1068V99.9027H124.276L124.269 103.386L128.754 103.392L128.76 106.887L133.472 106.881V110.205H142.668V106.881L147.373 106.887L147.4 103.386H179.747L179.78 106.881L184.505 106.893L184.512 110.205H189.19L189.197 106.893L193.682 106.887V103.38L198.427 103.386L198.413 99.9027H203.165L203.158 103.386L207.643 103.392L207.65 106.887L212.381 106.893L212.388 110.205L217.1 110.2V113.712L212.381 113.701L212.395 117.208H207.643L207.65 120.502H212.388L212.395 124.003H207.643V127.298H212.395L212.381 130.817L207.643 130.823L207.656 134.3H203.158V137.601H207.656L207.636 141.12H198.453L198.447 144.585L203.158 144.574V147.927L198.447 147.916V151.405L203.165 151.393V154.906L198.447 154.9V158.201L203.165 158.189L203.158 161.725L198.447 161.72V165.179L203.158 165.173V168.521H198.447L198.453 175.494L193.708 175.506L193.715 196.088H189.19L189.197 175.506H184.512V196.094L179.74 196.088Z"/>
</mask>
<path d="M179.74 196.088V165.215L175.256 165.191V147.922H170.544V144.603H165.832V147.91L161.348 147.927V165.197L156.636 165.209V196.088L151.864 196.1L151.871 178.824L147.407 178.818L147.413 196.1L142.668 196.094V178.824L138.177 178.795V147.933L133.452 147.91L133.439 144.597L128.727 144.609L128.734 141.126L119.511 141.12L119.504 134.306H114.786L114.799 130.823H110.315L110.301 127.328L105.57 127.316L105.563 117.208H91.6284V113.707H82.4255L82.4322 106.911L77.6871 106.905L77.6938 96.6078L72.9754 96.6137L72.9821 93.0832L77.6871 93.0891L77.6938 89.6293L72.9821 89.6352V86.2814L77.6871 86.2932L77.6938 82.804L72.9754 82.8158L72.9821 79.3265L68.5043 79.3206L68.491 76.014H63.7459L63.7592 72.507L59.0342 72.5129L59.0475 65.7171L54.5497 65.7112L54.5564 58.7326L49.8247 58.7267L49.8113 55.4142H45.0996V48.4062H49.8514L49.838 51.8955L54.5831 51.8837V55.3966L63.7793 55.3907V58.709L68.5244 58.7032L68.5177 62.1866L73.0022 62.1983L73.0088 65.6935L77.7205 65.6876V69.0119L82.4656 69.0001L82.4523 72.4835L86.9434 72.4953L86.9501 75.9904L91.6551 75.9845V79.3088H96.3668V75.9963H100.878L100.885 79.3088H105.563L105.57 75.9963L110.301 75.9845L110.308 72.4953L114.799 72.4894L114.786 69.006H119.504V62.1924L128.734 62.1866V55.3907H138.177L138.184 51.8955L142.675 51.8896L142.662 48.4062L147.38 48.4121V45.0996H151.891L151.898 48.4121L156.643 48.4062V51.9132H151.891L151.898 55.3907L156.63 55.4025V58.7267L151.891 58.7385L151.898 62.1866L156.63 62.1983L156.643 65.7112H151.898L151.891 69.0178L147.407 69.0296L147.413 72.5129L142.695 72.507V79.3265H133.472L133.479 82.8099L128.754 82.804L128.767 86.3109H119.538L119.531 89.6057L124.276 89.5998V93.1127L119.531 93.1068V99.9027H124.276L124.269 103.386L128.754 103.392L128.76 106.887L133.472 106.881V110.205H142.668V106.881L147.373 106.887L147.4 103.386H179.747L179.78 106.881L184.505 106.893L184.512 110.205H189.19L189.197 106.893L193.682 106.887V103.38L198.427 103.386L198.413 99.9027H203.165L203.158 103.386L207.643 103.392L207.65 106.887L212.381 106.893L212.388 110.205L217.1 110.2V113.712L212.381 113.701L212.395 117.208H207.643L207.65 120.502H212.388L212.395 124.003H207.643V127.298H212.395L212.381 130.817L207.643 130.823L207.656 134.3H203.158V137.601H207.656L207.636 141.12H198.453L198.447 144.585L203.158 144.574V147.927L198.447 147.916V151.405L203.165 151.393V154.906L198.447 154.9V158.201L203.165 158.189L203.158 161.725L198.447 161.72V165.179L203.158 165.173V168.521H198.447L198.453 175.494L193.708 175.506L193.715 196.088H189.19L189.197 175.506H184.512V196.094L179.74 196.088Z" fill="white"/>
<path d="M179.74 196.088V165.215L175.256 165.191V147.922H170.544V144.603H165.832V147.91L161.348 147.927V165.197L156.636 165.209V196.088L151.864 196.1L151.871 178.824L147.407 178.818L147.413 196.1L142.668 196.094V178.824L138.177 178.795V147.933L133.452 147.91L133.439 144.597L128.727 144.609L128.734 141.126L119.511 141.12L119.504 134.306H114.786L114.799 130.823H110.315L110.301 127.328L105.57 127.316L105.563 117.208H91.6284V113.707H82.4255L82.4322 106.911L77.6871 106.905L77.6938 96.6078L72.9754 96.6137L72.9821 93.0832L77.6871 93.0891L77.6938 89.6293L72.9821 89.6352V86.2814L77.6871 86.2932L77.6938 82.804L72.9754 82.8158L72.9821 79.3265L68.5043 79.3206L68.491 76.014H63.7459L63.7592 72.507L59.0342 72.5129L59.0475 65.7171L54.5497 65.7112L54.5564 58.7326L49.8247 58.7267L49.8113 55.4142H45.0996V48.4062H49.8514L49.838 51.8955L54.5831 51.8837V55.3966L63.7793 55.3907V58.709L68.5244 58.7032L68.5177 62.1866L73.0022 62.1983L73.0088 65.6935L77.7205 65.6876V69.0119L82.4656 69.0001L82.4523 72.4835L86.9434 72.4953L86.9501 75.9904L91.6551 75.9845V79.3088H96.3668V75.9963H100.878L100.885 79.3088H105.563L105.57 75.9963L110.301 75.9845L110.308 72.4953L114.799 72.4894L114.786 69.006H119.504V62.1924L128.734 62.1866V55.3907H138.177L138.184 51.8955L142.675 51.8896L142.662 48.4062L147.38 48.4121V45.0996H151.891L151.898 48.4121L156.643 48.4062V51.9132H151.891L151.898 55.3907L156.63 55.4025V58.7267L151.891 58.7385L151.898 62.1866L156.63 62.1983L156.643 65.7112H151.898L151.891 69.0178L147.407 69.0296L147.413 72.5129L142.695 72.507V79.3265H133.472L133.479 82.8099L128.754 82.804L128.767 86.3109H119.538L119.531 89.6057L124.276 89.5998V93.1127L119.531 93.1068V99.9027H124.276L124.269 103.386L128.754 103.392L128.76 106.887L133.472 106.881V110.205H142.668V106.881L147.373 106.887L147.4 103.386H179.747L179.78 106.881L184.505 106.893L184.512 110.205H189.19L189.197 106.893L193.682 106.887V103.38L198.427 103.386L198.413 99.9027H203.165L203.158 103.386L207.643 103.392L207.65 106.887L212.381 106.893L212.388 110.205L217.1 110.2V113.712L212.381 113.701L212.395 117.208H207.643L207.65 120.502H212.388L212.395 124.003H207.643V127.298H212.395L212.381 130.817L207.643 130.823L207.656 134.3H203.158V137.601H207.656L207.636 141.12H198.453L198.447 144.585L203.158 144.574V147.927L198.447 147.916V151.405L203.165 151.393V154.906L198.447 154.9V158.201L203.165 158.189L203.158 161.725L198.447 161.72V165.179L203.158 165.173V168.521H198.447L198.453 175.494L193.708 175.506L193.715 196.088H189.19L189.197 175.506H184.512V196.094L179.74 196.088Z" stroke="black" stroke-width="8" mask="url(#path-1-outside-1_224_22327)"/>
</g>
<defs>
<filter id="filter0_d_224_22327" x="-0.000389099" y="-0.000389099" width="262.2" height="241.21" filterUnits="userSpaceOnUse" color-interpolation-filters="sRGB">
<feFlood flood-opacity="0" result="BackgroundImageFix"/>
<feColorMatrix in="SourceAlpha" type="matrix" values="0 0 0 0 0 0 0 0 0 0 0 0 0 0 0 0 0 0 127 0" result="hardAlpha"/>
<feOffset/>
<feGaussianBlur stdDeviation="20.55"/>
<feComposite in2="hardAlpha" operator="out"/>
<feColorMatrix type="matrix" values="0 0 0 0 0.857602 0 0 0 0 0.716891 0 0 0 0 0.896522 0 0 0 1 0"/>
<feBlend mode="normal" in2="BackgroundImageFix" result="effect1_dropShadow_224_22327"/>
<feBlend mode="normal" in="SourceGraphic" in2="effect1_dropShadow_224_22327" result="shape"/>
</filter>
</defs>
</svg>
