<svg width="338" height="540" viewBox="0 0 338 540" fill="none" xmlns="http://www.w3.org/2000/svg">
<path d="M203.125 535.683C202.398 537.172 203.016 538.969 204.505 539.696C205.993 540.423 207.79 539.805 208.517 538.316L205.821 537L203.125 535.683ZM223.558 405.779L220.583 406.166L223.558 405.779ZM194.421 182.802L175.167 197.945L190.31 217.198L209.563 202.055L194.421 182.802ZM205.821 537L208.517 538.316C219.121 516.604 235.186 471.941 226.533 405.392L223.558 405.779L220.583 406.166C229.057 471.335 213.317 514.815 203.125 535.683L205.821 537ZM223.558 405.779L226.533 405.392C222.569 374.9 212.621 340.359 204.837 305.406C197.007 270.242 191.279 234.372 195.344 200.356L192.365 200L189.387 199.644C185.195 234.718 191.121 271.417 198.981 306.71C206.887 342.214 216.664 376.017 220.583 406.166L223.558 405.779Z" fill="url(#paint0_linear_224_21801)"/>
<path d="M202.555 536.647C202.359 538.013 203.309 539.28 204.676 539.475C206.043 539.67 207.309 538.72 207.504 537.353L205.029 537L202.555 536.647ZM174.209 408.146L176.321 406.808V406.808L174.209 408.146ZM94.9814 279.467L86.4668 298.019L105.019 306.533L113.533 287.981L94.9814 279.467ZM205.029 537L207.504 537.353C217.214 469.37 189.007 426.835 176.321 406.808L174.209 408.146L172.097 409.484C184.671 429.335 211.996 470.542 202.555 536.647L205.029 537ZM174.209 408.146L176.321 406.808C163.368 386.361 150.54 373.387 138.394 357.997C126.199 342.545 114.215 324.142 102.344 292.131L100 293L97.656 293.869C109.723 326.41 121.977 345.267 134.469 361.094C147.009 376.983 159.316 389.306 172.097 409.484L174.209 408.146Z" fill="url(#paint1_linear_224_21801)"/>
<path d="M254.569 345.625L267.309 360.093L250.114 372.978L237.373 358.511L254.569 345.625ZM249.961 455.902L247.357 455.84L249.961 455.902ZM208.852 538.676C208.061 539.833 206.438 540.274 205.225 539.659C204.012 539.045 203.67 537.609 204.461 536.451L206.657 537.563L208.852 538.676ZM252.341 359.302L254.934 359.439C251.684 379.389 251.791 397.831 252.37 414.129C252.945 430.304 254.011 444.653 252.564 455.964L249.961 455.902L247.357 455.84C248.745 444.992 247.717 431.207 247.131 414.706C246.549 398.326 246.429 379.547 249.749 359.165L252.341 359.302ZM249.961 455.902L252.564 455.964C247.386 496.448 221.713 519.846 208.852 538.676L206.657 537.563L204.461 536.451C218.071 516.524 242.369 494.843 247.357 455.84L249.961 455.902Z" fill="url(#paint2_linear_224_21801)"/>
<path d="M175.208 141.146C169.695 172.236 185.18 187.803 193.612 191.7C198.415 186.121 196.259 166.62 197.963 139.278C200.335 101.209 239.162 65.9911 214.557 39.1354C227.661 81.2841 180.722 110.056 175.208 141.146Z" fill="url(#paint3_linear_224_21801)"/>
<path d="M183.65 157.486C177.486 188.454 192.642 204.342 200.99 208.415C205.909 202.938 204.162 183.396 206.439 156.096C209.609 118.085 249.165 83.6886 225.128 56.323C237.346 98.7371 189.815 126.519 183.65 157.486Z" fill="url(#paint4_linear_224_21801)"/>
<path d="M191.604 212.208L191.823 212.302C194.842 205.587 189.855 188.501 183.712 161.803C175.16 124.631 202.368 79.8259 171.142 61.0764C195.691 97.7581 158.873 138.691 162.429 170.065C165.96 201.221 181.159 207.733 191.604 212.208Z" fill="url(#paint5_linear_224_21801)"/>
<path d="M212.833 176.335C210.002 201.239 198.821 209.748 191.524 210.808C189.13 205.478 191.057 190.962 195.94 169.771C202.74 140.266 181.155 104.692 205.948 89.8173C186.45 118.928 215.664 151.431 212.833 176.335Z" fill="url(#paint6_linear_224_21801)"/>
<path d="M230.517 152.193C225.192 195.198 204.663 209.615 191.823 212.302C188.521 203.397 197.606 179.46 205.801 142.619C217.21 91.3252 186.864 32.4541 224.253 4.46069C194.058 56.3477 235.841 109.188 230.517 152.193Z" fill="url(#paint7_linear_224_21801)"/>
<path d="M65.5586 250.078C69.0318 281.462 88.277 292.033 97.4654 293.395C100.501 286.689 92.936 268.586 86.8638 241.872C78.4093 204.678 93.2161 174.503 62.039 155.671C93.9883 193.294 62.0854 218.695 65.5586 250.078Z" fill="url(#paint8_linear_224_21801)"/>
<path d="M78.7261 253.619C81.5407 285.068 92.1603 299.626 101.318 301.181C104.494 294.539 105.71 272.696 100.199 245.861C92.5257 208.498 119.309 198.764 100.199 167.412C108.481 202.944 75.9116 222.169 78.7261 253.619Z" fill="url(#paint9_linear_224_21801)"/>
<path d="M90.8677 259.08C93.6823 290.529 94.5492 298.432 103.707 299.987C106.883 293.345 121.46 271.582 115.949 244.747C108.276 207.384 136.916 196.214 117.806 164.862C126.088 200.394 88.0531 227.63 90.8677 259.08Z" fill="url(#paint10_linear_224_21801)"/>
<path d="M61.9107 271.669C74.1656 300.769 94.2536 305.408 103.45 304.101C104.453 296.808 83.304 281.519 74.7437 255.496C67.2789 232.803 74.1263 215.619 65.189 203.84C55.3355 227.428 51.1552 206.826 29.6564 199.659C63.5502 227.934 49.6558 242.569 61.9107 271.669Z" fill="url(#paint11_linear_224_21801)"/>
<path d="M112.039 263.479C116.343 288.171 104.014 300.491 97.3111 303.565C93.5117 299.125 97.6052 282.444 90.8676 261.767C80.8864 231.136 47.0868 192.255 66.6817 170.995C57.1268 209.215 107.736 238.786 112.039 263.479Z" fill="url(#paint12_linear_224_21801)"/>
<path d="M122.2 235.329C129.214 278.091 112.851 298.552 103.155 304.055C97.4763 296.441 98.3098 270.767 95.7876 233.11C92.2761 180.68 56.316 154.347 84.2986 116.95C69.9528 175.244 115.187 192.567 122.2 235.329Z" fill="url(#paint13_linear_224_21801)"/>
<path d="M280.025 301.769C274.838 355.221 253.587 348.949 243.287 350.796C240.798 341.833 235.352 307.063 261.546 281.846C275.991 267.939 288.869 249.428 324.463 238.562C286.315 258.066 282.126 280.128 280.025 301.769Z" fill="url(#paint14_linear_224_21801)"/>
<path d="M239.372 296.558C233.723 327.166 245.573 343.071 253.184 347.418C258.038 342.221 257.324 322.902 260.735 296.103C265.483 258.789 242.271 236.116 224.701 229.138C245.012 247.582 247.217 254.047 239.372 296.558Z" fill="url(#paint15_linear_224_21801)"/>
<path d="M246.164 313.149C232.142 340.686 251.438 359.798 258.959 364.313C263.914 359.223 268.639 325.442 272.581 298.718C278.07 261.511 280.251 246.168 259.638 217.782C261.958 245.145 270.322 265.708 246.164 313.149Z" fill="url(#paint16_linear_224_21801)"/>
<path d="M272.148 333.469C267.848 357.8 253.01 365.082 246.128 365.682C244.249 360.291 250.849 346.537 256.818 325.983C265.128 297.366 297.954 278.524 318.607 283.427C293.989 290.022 276.448 309.137 272.148 333.469Z" fill="url(#paint17_linear_224_21801)"/>
<path d="M250.358 306.752C243.992 327.024 249.237 338.676 252.656 341.968C255.561 338.644 256.959 325.466 261.104 307.379C266.875 282.196 289.145 261.913 281.07 241.985C281.951 271.161 256.723 286.48 250.358 306.752Z" fill="url(#paint18_linear_224_21801)"/>
<path d="M252.253 318.34C245.601 338.477 250.655 350.316 254.014 353.718C256.96 350.471 258.552 337.3 262.957 319.288C269.089 294.209 291.595 274.534 283.846 254.313C284.285 283.593 258.904 298.203 252.253 318.34Z" fill="url(#paint19_linear_224_21801)"/>
<path d="M240.9 324.98C238.691 346.188 246.307 354.787 250.391 356.436C252.61 352.208 251.312 339.527 251.751 321.224C252.363 295.74 270.44 268.109 258.309 253.041C265.152 279.514 243.109 303.773 240.9 324.98Z" fill="url(#paint20_linear_224_21801)"/>
<path d="M264.901 329.378C259.984 348.4 250.234 353.129 245.974 353.116C245.333 348.701 250.66 338.244 256.241 322.342C264.011 300.2 256.568 270.089 272.545 261.376C257.659 281.756 269.818 310.356 264.901 329.378Z" fill="url(#paint21_linear_224_21801)"/>
<path d="M274.565 318.668C266.823 346.899 254.229 355.566 248.9 356.371C248.467 350.163 256.006 334.137 264.317 310.252C275.888 276.996 269.091 235.253 289.81 219.668C269.482 251.774 282.306 290.437 274.565 318.668Z" fill="url(#paint22_linear_224_21801)"/>
<path d="M225.519 324.236C218.382 354.733 243.73 368.013 252.221 369.888C255.485 363.465 249.891 344.042 245.935 317.4C240.426 280.306 245.492 276.008 217.594 255.663C238.067 293.247 232.514 294.345 225.519 324.236Z" fill="url(#paint23_linear_224_21801)"/>
<path d="M285.663 320.92C287.455 363.917 262.819 368.341 252.519 370.187C250.03 361.224 249.642 329.795 270.729 300.025C284.459 280.64 297.597 262.425 333.646 256.741C292.82 278.251 284.755 299.134 285.663 320.92Z" fill="url(#paint24_linear_224_21801)"/>
<defs>
<linearGradient id="paint0_linear_224_21801" x1="207.622" y1="201.74" x2="207.622" y2="537" gradientUnits="userSpaceOnUse">
<stop/>
<stop offset="0.543269" stop-color="#B04F98"/>
<stop offset="1" stop-color="white"/>
</linearGradient>
<linearGradient id="paint1_linear_224_21801" x1="146.876" y1="294.745" x2="146.876" y2="537" gradientUnits="userSpaceOnUse">
<stop/>
<stop offset="0.461538" stop-color="#748162"/>
<stop offset="1" stop-color="white"/>
</linearGradient>
<linearGradient id="paint2_linear_224_21801" x1="274.668" y1="366.444" x2="211.111" y2="539.682" gradientUnits="userSpaceOnUse">
<stop/>
<stop offset="0.384615" stop-color="#863232"/>
<stop offset="1" stop-color="white"/>
</linearGradient>
<linearGradient id="paint3_linear_224_21801" x1="189.079" y1="95.3468" x2="188.786" y2="193.4" gradientUnits="userSpaceOnUse">
<stop stop-color="#CFE8D4"/>
<stop offset="0.538462" stop-color="#6A5379"/>
<stop offset="0.860577" stop-color="#C58788"/>
<stop offset="1"/>
</linearGradient>
<linearGradient id="paint4_linear_224_21801" x1="198.478" y1="111.988" x2="196.13" y2="210.014" gradientUnits="userSpaceOnUse">
<stop stop-color="#CFE8D4"/>
<stop offset="0.538462" stop-color="#6A5379"/>
<stop offset="0.860577" stop-color="#C58788"/>
<stop offset="1"/>
</linearGradient>
<linearGradient id="paint5_linear_224_21801" x1="162.419" y1="121.644" x2="189.717" y2="214.686" gradientUnits="userSpaceOnUse">
<stop stop-color="#CFE8D4"/>
<stop offset="0.538462" stop-color="#6A5379"/>
<stop offset="0.860577" stop-color="#C58788"/>
<stop offset="1"/>
</linearGradient>
<linearGradient id="paint6_linear_224_21801" x1="212.929" y1="138.051" x2="191.171" y2="212.111" gradientUnits="userSpaceOnUse">
<stop stop-color="#CFE8D4"/>
<stop offset="0.538462" stop-color="#6A5379"/>
<stop offset="0.860577" stop-color="#C58788"/>
<stop offset="1"/>
</linearGradient>
<linearGradient id="paint7_linear_224_21801" x1="232.156" y1="86.5802" x2="196.509" y2="216.028" gradientUnits="userSpaceOnUse">
<stop stop-color="#CFE8D4"/>
<stop offset="0.538462" stop-color="#6A5379"/>
<stop offset="0.860577" stop-color="#C58788"/>
<stop offset="1"/>
</linearGradient>
<linearGradient id="paint8_linear_224_21801" x1="62.1944" y1="197.133" x2="92.504" y2="301.453" gradientUnits="userSpaceOnUse">
<stop stop-opacity="0.7"/>
<stop offset="0.475962" stop-color="#7E9C79" stop-opacity="0.7"/>
<stop offset="0.764423" stop-color="#B2AA74"/>
<stop offset="0.966346"/>
</linearGradient>
<linearGradient id="paint9_linear_224_21801" x1="82.383" y1="209.781" x2="107.999" y2="305.383" gradientUnits="userSpaceOnUse">
<stop stop-opacity="0.7"/>
<stop offset="0.475962" stop-color="#7E9C79" stop-opacity="0.7"/>
<stop offset="0.764423" stop-color="#B2AA74"/>
<stop offset="0.966346"/>
</linearGradient>
<linearGradient id="paint10_linear_224_21801" x1="93.7523" y1="208.14" x2="118.849" y2="301.8" gradientUnits="userSpaceOnUse">
<stop stop-opacity="0.7"/>
<stop offset="0.475962" stop-color="#7E9C79" stop-opacity="0.7"/>
<stop offset="0.764423" stop-color="#B2AA74"/>
<stop offset="0.966346"/>
</linearGradient>
<linearGradient id="paint11_linear_224_21801" x1="50.305" y1="228.976" x2="103.089" y2="311.121" gradientUnits="userSpaceOnUse">
<stop stop-opacity="0.7"/>
<stop offset="0.475962" stop-color="#7E9C79" stop-opacity="0.7"/>
<stop offset="0.764423" stop-color="#B2AA74"/>
<stop offset="0.966346"/>
</linearGradient>
<linearGradient id="paint12_linear_224_21801" x1="94.2985" y1="208.171" x2="94.2985" y2="309.491" gradientUnits="userSpaceOnUse">
<stop stop-opacity="0.7"/>
<stop offset="0.475962" stop-color="#7E9C79" stop-opacity="0.7"/>
<stop offset="0.764423" stop-color="#B2AA74"/>
<stop offset="0.966346"/>
</linearGradient>
<linearGradient id="paint13_linear_224_21801" x1="105.209" y1="169.152" x2="107.648" y2="312.356" gradientUnits="userSpaceOnUse">
<stop stop-opacity="0.7"/>
<stop offset="0.475962" stop-color="#7E9C79" stop-opacity="0.7"/>
<stop offset="0.764423" stop-color="#B2AA74"/>
<stop offset="0.966346"/>
</linearGradient>
<linearGradient id="paint14_linear_224_21801" x1="285.702" y1="251.794" x2="249.46" y2="351.768" gradientUnits="userSpaceOnUse">
<stop stop-opacity="0.7"/>
<stop offset="0.240385" stop-color="#25374F"/>
<stop offset="0.879808" stop-color="#67A973"/>
<stop offset="1"/>
</linearGradient>
<linearGradient id="paint15_linear_224_21801" x1="247.939" y1="253.129" x2="241.628" y2="345.59" gradientUnits="userSpaceOnUse">
<stop stop-opacity="0.7"/>
<stop offset="0.240385" stop-color="#25374F"/>
<stop offset="0.879808" stop-color="#67A973"/>
<stop offset="1"/>
</linearGradient>
<linearGradient id="paint16_linear_224_21801" x1="266.778" y1="246.661" x2="256.271" y2="362.76" gradientUnits="userSpaceOnUse">
<stop stop-opacity="0.7"/>
<stop offset="0.240385" stop-color="#25374F"/>
<stop offset="0.879808" stop-color="#67A973"/>
<stop offset="1"/>
</linearGradient>
<linearGradient id="paint17_linear_224_21801" x1="286.845" y1="292.453" x2="257.519" y2="369.059" gradientUnits="userSpaceOnUse">
<stop stop-opacity="0.7"/>
<stop offset="0.240385" stop-color="#25374F"/>
<stop offset="0.879808" stop-color="#67A973"/>
<stop offset="1"/>
</linearGradient>
<linearGradient id="paint18_linear_224_21801" x1="262.418" y1="276.936" x2="250.62" y2="341.596" gradientUnits="userSpaceOnUse">
<stop stop-color="white" stop-opacity="0.88"/>
<stop offset="0.173077" stop-color="#B4789E" stop-opacity="0.7"/>
<stop offset="1"/>
</linearGradient>
<linearGradient id="paint19_linear_224_21801" x1="264.725" y1="288.802" x2="250.978" y2="353.068" gradientUnits="userSpaceOnUse">
<stop stop-color="white" stop-opacity="0.88"/>
<stop offset="0.173077" stop-color="#B4789E" stop-opacity="0.7"/>
<stop offset="1"/>
</linearGradient>
<linearGradient id="paint20_linear_224_21801" x1="246.841" y1="292.7" x2="260.798" y2="354.069" gradientUnits="userSpaceOnUse">
<stop stop-color="white" stop-opacity="0.88"/>
<stop offset="0.173077" stop-color="#B4789E" stop-opacity="0.7"/>
<stop offset="1"/>
</linearGradient>
<linearGradient id="paint21_linear_224_21801" x1="270.036" y1="299.52" x2="238.317" y2="348.118" gradientUnits="userSpaceOnUse">
<stop stop-color="white" stop-opacity="0.88"/>
<stop offset="0.173077" stop-color="#B4789E" stop-opacity="0.7"/>
<stop offset="1"/>
</linearGradient>
<linearGradient id="paint22_linear_224_21801" x1="283.484" y1="274.856" x2="237.345" y2="349.2" gradientUnits="userSpaceOnUse">
<stop stop-color="white" stop-opacity="0.88"/>
<stop offset="0.173077" stop-color="#B4789E" stop-opacity="0.7"/>
<stop offset="1"/>
</linearGradient>
<linearGradient id="paint23_linear_224_21801" x1="228.733" y1="276.593" x2="250.863" y2="369.118" gradientUnits="userSpaceOnUse">
<stop stop-opacity="0.7"/>
<stop offset="0.240385" stop-color="#25374F"/>
<stop offset="0.879808" stop-color="#67A973"/>
<stop offset="1"/>
</linearGradient>
<linearGradient id="paint24_linear_224_21801" x1="296.477" y1="270.78" x2="259.93" y2="371.597" gradientUnits="userSpaceOnUse">
<stop stop-opacity="0.7"/>
<stop offset="0.240385" stop-color="#25374F"/>
<stop offset="0.879808" stop-color="#67A973"/>
<stop offset="1"/>
</linearGradient>
</defs>
</svg>
