<svg width="249" height="224" viewBox="0 0 249 224" fill="none" xmlns="http://www.w3.org/2000/svg">
<g filter="url(#filter0_d_224_22325)">
<mask id="path-1-outside-1_224_22325" maskUnits="userSpaceOnUse" x="40.1104" y="41.0996" width="167" height="141" fill="black">
<rect fill="white" x="40.1104" y="41.0996" width="167" height="141"/>
<path d="M137.235 173.556V166.462L133.454 166.455L133.461 159.368H129.68L129.688 155.817H126.117V152.266L114.759 152.274L114.767 155.817L110.986 155.825L110.993 166.455L106.972 166.462L106.98 173.549H103.192L103.207 177.1H95.6748V166.455H91.8939L91.9014 155.817L88.0979 155.825V166.455L84.317 166.462L84.3245 177.1H76.5602V173.549H72.7793L72.7868 166.455H69.0058L69.0134 152.274L65.2324 152.259V116.818L61.4515 116.803L61.459 102.816L57.6781 102.823V99.265L53.9047 99.2799L53.8972 95.7216L46.1178 95.7291L46.1104 92.2007L49.8988 92.208L49.8913 88.6274L46.1104 88.6424V85.1065L49.8988 85.1139L49.8913 81.5332L46.1104 81.5482L46.1178 78.0197H49.8913V60.288H53.9122L53.8972 56.7372L57.6856 56.7446L57.6781 53.1938H61.4365L61.4215 56.7372H65.2099L65.2024 60.288H68.9833V63.8314H80.3411L80.3336 60.2805L84.3545 60.288L84.347 56.7372L88.1279 56.7446L88.1205 53.1863L91.9089 53.1938L91.8939 49.643L95.6823 49.6504L95.6748 46.0996H99.4332L99.4182 49.643H103.207L103.199 56.7372L106.98 56.7446L106.972 74.4615L111.023 74.4764L111.008 70.9256H114.789L114.804 67.3747H148.765L148.773 70.933L156.327 70.9181L156.319 74.4764L163.911 74.4689L163.896 70.9256H167.925L167.91 67.3747H171.698L171.683 63.8314H175.471L175.464 56.7372H179.252L179.237 53.1938H183.026L183.011 49.643H186.799L186.792 46.0996H198.329V49.643L202.11 49.6504V60.2581H198.329L198.337 67.3598L194.323 67.3523V74.4465L190.543 74.439L190.55 77.9973L186.769 77.9899V81.5482L182.996 81.5332V85.0915L179.215 85.0841L179.222 88.6349H175.441V99.2725H171.661L171.668 116.803L167.887 116.81V138.108L171.668 138.1V141.651L175.441 141.659V166.447L171.661 166.455L171.668 173.549H163.904V166.462L160.123 166.455L160.13 159.368H156.349L156.357 155.817H152.568L152.583 152.274H148.773V166.455H144.992L144.999 173.549L137.235 173.556Z"/>
</mask>
<path d="M137.235 173.556V166.462L133.454 166.455L133.461 159.368H129.68L129.688 155.817H126.117V152.266L114.759 152.274L114.767 155.817L110.986 155.825L110.993 166.455L106.972 166.462L106.98 173.549H103.192L103.207 177.1H95.6748V166.455H91.8939L91.9014 155.817L88.0979 155.825V166.455L84.317 166.462L84.3245 177.1H76.5602V173.549H72.7793L72.7868 166.455H69.0058L69.0134 152.274L65.2324 152.259V116.818L61.4515 116.803L61.459 102.816L57.6781 102.823V99.265L53.9047 99.2799L53.8972 95.7216L46.1178 95.7291L46.1104 92.2007L49.8988 92.208L49.8913 88.6274L46.1104 88.6424V85.1065L49.8988 85.1139L49.8913 81.5332L46.1104 81.5482L46.1178 78.0197H49.8913V60.288H53.9122L53.8972 56.7372L57.6856 56.7446L57.6781 53.1938H61.4365L61.4215 56.7372H65.2099L65.2024 60.288H68.9833V63.8314H80.3411L80.3336 60.2805L84.3545 60.288L84.347 56.7372L88.1279 56.7446L88.1205 53.1863L91.9089 53.1938L91.8939 49.643L95.6823 49.6504L95.6748 46.0996H99.4332L99.4182 49.643H103.207L103.199 56.7372L106.98 56.7446L106.972 74.4615L111.023 74.4764L111.008 70.9256H114.789L114.804 67.3747H148.765L148.773 70.933L156.327 70.9181L156.319 74.4764L163.911 74.4689L163.896 70.9256H167.925L167.91 67.3747H171.698L171.683 63.8314H175.471L175.464 56.7372H179.252L179.237 53.1938H183.026L183.011 49.643H186.799L186.792 46.0996H198.329V49.643L202.11 49.6504V60.2581H198.329L198.337 67.3598L194.323 67.3523V74.4465L190.543 74.439L190.55 77.9973L186.769 77.9899V81.5482L182.996 81.5332V85.0915L179.215 85.0841L179.222 88.6349H175.441V99.2725H171.661L171.668 116.803L167.887 116.81V138.108L171.668 138.1V141.651L175.441 141.659V166.447L171.661 166.455L171.668 173.549H163.904V166.462L160.123 166.455L160.13 159.368H156.349L156.357 155.817H152.568L152.583 152.274H148.773V166.455H144.992L144.999 173.549L137.235 173.556Z" fill="white"/>
<path d="M137.235 173.556V166.462L133.454 166.455L133.461 159.368H129.68L129.688 155.817H126.117V152.266L114.759 152.274L114.767 155.817L110.986 155.825L110.993 166.455L106.972 166.462L106.98 173.549H103.192L103.207 177.1H95.6748V166.455H91.8939L91.9014 155.817L88.0979 155.825V166.455L84.317 166.462L84.3245 177.1H76.5602V173.549H72.7793L72.7868 166.455H69.0058L69.0134 152.274L65.2324 152.259V116.818L61.4515 116.803L61.459 102.816L57.6781 102.823V99.265L53.9047 99.2799L53.8972 95.7216L46.1178 95.7291L46.1104 92.2007L49.8988 92.208L49.8913 88.6274L46.1104 88.6424V85.1065L49.8988 85.1139L49.8913 81.5332L46.1104 81.5482L46.1178 78.0197H49.8913V60.288H53.9122L53.8972 56.7372L57.6856 56.7446L57.6781 53.1938H61.4365L61.4215 56.7372H65.2099L65.2024 60.288H68.9833V63.8314H80.3411L80.3336 60.2805L84.3545 60.288L84.347 56.7372L88.1279 56.7446L88.1205 53.1863L91.9089 53.1938L91.8939 49.643L95.6823 49.6504L95.6748 46.0996H99.4332L99.4182 49.643H103.207L103.199 56.7372L106.98 56.7446L106.972 74.4615L111.023 74.4764L111.008 70.9256H114.789L114.804 67.3747H148.765L148.773 70.933L156.327 70.9181L156.319 74.4764L163.911 74.4689L163.896 70.9256H167.925L167.91 67.3747H171.698L171.683 63.8314H175.471L175.464 56.7372H179.252L179.237 53.1938H183.026L183.011 49.643H186.799L186.792 46.0996H198.329V49.643L202.11 49.6504V60.2581H198.329L198.337 67.3598L194.323 67.3523V74.4465L190.543 74.439L190.55 77.9973L186.769 77.9899V81.5482L182.996 81.5332V85.0915L179.215 85.0841L179.222 88.6349H175.441V99.2725H171.661L171.668 116.803L167.887 116.81V138.108L171.668 138.1V141.651L175.441 141.659V166.447L171.661 166.455L171.668 173.549H163.904V166.462L160.123 166.455L160.13 159.368H156.349L156.357 155.817H152.568L152.583 152.274H148.773V166.455H144.992L144.999 173.549L137.235 173.556Z" stroke="black" stroke-width="10" mask="url(#path-1-outside-1_224_22325)"/>
</g>
<rect x="60.1104" y="77.0996" width="4" height="4" fill="black"/>
<rect x="60.1104" y="77.0996" width="4" height="4" fill="black"/>
<rect x="82.1104" y="73.0996" width="4" height="4" fill="black"/>
<rect x="82.1104" y="73.0996" width="4" height="4" fill="black"/>
<rect x="72.1104" y="83.0996" width="4" height="4" fill="black"/>
<rect x="72.1104" y="83.0996" width="4" height="4" fill="black"/>
<rect x="76.1104" y="87.0996" width="4" height="4" fill="black"/>
<rect x="76.1104" y="87.0996" width="4" height="4" fill="black"/>
<rect x="68.1104" y="87.0996" width="4" height="4" fill="black"/>
<rect x="68.1104" y="87.0996" width="4" height="4" fill="black"/>
<defs>
<filter id="filter0_d_224_22325" x="-0.000389099" y="-0.000389099" width="248.211" height="223.2" filterUnits="userSpaceOnUse" color-interpolation-filters="sRGB">
<feFlood flood-opacity="0" result="BackgroundImageFix"/>
<feColorMatrix in="SourceAlpha" type="matrix" values="0 0 0 0 0 0 0 0 0 0 0 0 0 0 0 0 0 0 127 0" result="hardAlpha"/>
<feOffset/>
<feGaussianBlur stdDeviation="20.55"/>
<feComposite in2="hardAlpha" operator="out"/>
<feColorMatrix type="matrix" values="0 0 0 0 0.857602 0 0 0 0 0.716891 0 0 0 0 0.896522 0 0 0 1 0"/>
<feBlend mode="normal" in2="BackgroundImageFix" result="effect1_dropShadow_224_22325"/>
<feBlend mode="normal" in="SourceGraphic" in2="effect1_dropShadow_224_22325" result="shape"/>
</filter>
</defs>
</svg>
