<svg width="106" height="93" viewBox="0 0 106 93" fill="none" xmlns="http://www.w3.org/2000/svg">
<path d="M82.9762 92.9927V73.9782L80.2126 73.9636V63.3274H77.3088V61.2837H74.4051V63.3202L71.6414 63.3311V73.9673L68.7377 73.9745V92.9927L65.7969 93L65.8011 82.3601L63.0497 82.3565L63.0539 93L60.1296 92.9964V82.3601L57.3618 82.342V63.3347L54.4498 63.3202L54.4416 61.28L51.5379 61.2873L51.542 59.1419L45.8581 59.1383L45.854 54.9419H42.9461L42.9544 52.7965H40.1907L40.1825 50.6438L37.2664 50.6365L37.2623 44.4109H28.6747V42.2546H23.0032L23.0073 38.069L20.083 38.0655L20.0871 31.7236L17.1793 31.7272L17.1834 29.5528L20.083 29.5564L20.0871 27.4256L17.1834 27.4292V25.3636L20.083 25.3709L20.0871 23.2219L17.1793 23.2292L17.1834 21.0801L14.4238 21.0765L14.4156 19.04H11.4913L11.4995 16.88L8.58758 16.8837L8.59582 12.6982L5.8239 12.6946L5.82802 8.39646L2.91195 8.39283L2.90372 6.35271H0V2.03653H2.92843L2.92019 4.18554L5.8445 4.17827V6.34185L11.5119 6.33822V8.38197L14.4362 8.37834L14.4321 10.5238L17.1958 10.531L17.1999 12.6837L20.1036 12.68V14.7274L23.0279 14.7201L23.0197 16.8656L25.7875 16.8728L25.7916 19.0255L28.6912 19.0218V21.0692H31.5949V19.0291H34.375L34.3792 21.0692H37.2623L37.2664 19.0291L40.1825 19.0218L40.1866 16.8728L42.9544 16.8692L42.9461 14.7238H45.854V10.5273L51.542 10.5238V6.33822H57.3618L57.3659 4.18554L60.1337 4.1819L60.1254 2.03653L63.0333 2.04012V0H65.8134L65.8175 2.04012L68.7418 2.03653V4.19644H65.8134L65.8175 6.33822L68.7336 6.34548V8.39283L65.8134 8.4001L65.8175 10.5238L68.7336 10.531L68.7418 12.6946H65.8175L65.8134 14.731L63.0497 14.7383L63.0539 16.8837L60.146 16.88V21.0801H54.4622L54.4663 23.2255L51.5543 23.2219L51.5626 25.3818H45.8746L45.8705 27.411L48.7948 27.4074V29.571L45.8705 29.5673V33.7529H48.7948L48.7906 35.8982L51.5543 35.9019L51.5584 38.0545L54.4622 38.0509V40.0983H60.1296V38.0509L63.0292 38.0545L63.0456 35.8982H82.9804L83.0009 38.0509L85.9129 38.0582L85.917 40.0983H88.8001L88.8042 38.0582L91.5679 38.0545V35.8946L94.4922 35.8982L94.484 33.7529H97.4124L97.4083 35.8982L100.172 35.9019L100.176 38.0545L103.092 38.0582L103.096 40.0983L106 40.0947V42.2582L103.092 42.2509L103.1 44.4109H100.172L100.176 46.4401H103.096L103.1 48.5964H100.172V50.6256H103.1L103.092 52.7928L100.172 52.7965L100.18 54.9382H97.4083V56.9711H100.18L100.168 59.1383H94.5087L94.5046 61.2728L97.4083 61.2655V63.3311L94.5046 63.3238V65.4728L97.4124 65.4656V67.6291L94.5046 67.6255V69.6583L97.4124 69.6511L97.4083 71.8291L94.5046 71.8255V73.9564L97.4083 73.9528V76.0147H94.5046L94.5087 80.3091L91.5844 80.3163L91.5885 92.9927H88.8001L88.8042 80.3163H85.917V92.9964L82.9762 92.9927Z" fill="black"/>
</svg>
