<svg width="78" height="83" viewBox="0 0 78 83" fill="none" xmlns="http://www.w3.org/2000/svg">
<path d="M2.14693 30.8461L0 30.838V28.4615L2.14693 28.4535V16.6193L4.40042 16.6153L4.39648 14.2348H6.63813L6.63418 16.6193L8.87978 16.6153L8.87583 19.0119H11.1293L11.1333 21.2918H13.2763L13.2802 23.6844H20.0328V21.2918L22.2863 21.2958V19.0079L24.5398 19.0119L24.5358 16.6193L26.6867 16.6153L26.6828 14.2348H28.9244L28.9205 16.6193H31.1779L31.1739 28.4615H33.4195L33.4156 30.842L31.1779 30.838L31.1739 33.2507L33.4156 33.2467V35.5145L31.1739 35.5104L31.1779 37.9191L35.6809 37.9232V35.5266H40.0735L40.0814 33.2467L44.5726 33.2507L44.5686 30.8541L46.8261 30.8581L46.8221 28.4575L51.2225 28.4615L51.2265 26.077H66.8588L66.8707 23.6844L69.1084 23.6884V21.2877L71.3619 21.2918V19.0079L73.6154 19.0119V11.8301H71.3579L71.3619 9.43346L69.1084 9.43749V7.15365L66.8707 7.15767L66.8628 4.76104H57.9593L57.9514 7.15767L55.7137 7.15365V14.2388L57.9554 14.2348L57.9514 16.6193H64.6172V11.8301H62.4545L62.4584 14.2227H60.2168L60.2207 11.8261L57.9633 11.8301L57.9672 9.44556L60.2168 9.45361V7.16975H64.6014L64.6053 9.44957L66.8549 9.44556V11.8462L69.0965 11.8422V16.6032H66.8549V18.9998L64.6053 18.9958L64.6014 21.2797H57.9672L57.9633 18.9958L53.4721 18.9998L53.476 14.2267L51.2225 14.2227V7.16975H53.476L53.4721 4.77313H55.7295L55.7216 2.38052L57.9672 2.38454V0H69.0926L69.0965 2.38454L71.35 2.38052L71.3461 4.77313H73.6035L73.5996 7.16975H75.7465V9.44957L78 9.45361V21.2757L75.7465 21.2797V26.0649H73.5956L73.5996 28.4454L71.35 28.4535L71.3461 33.2427L73.5996 33.2548V52.1378L71.3461 52.1539L71.35 73.5424L69.0965 73.5544V75.8302L66.8549 75.8262V78.2229H60.2168V73.5625H62.4742L62.4702 71.1699L64.6172 71.1659V61.5955L62.4702 61.5914V59.3076L60.2168 59.3156V56.911L57.9514 56.9311L57.9554 71.1538H51.2225V66.3968L53.4721 66.3887V59.3197L51.2225 59.3116L51.2186 56.923H49.0637V59.3116L46.8142 59.3156L46.8103 61.5914L44.5568 61.5955L44.5607 66.3807H42.3191V80.5993L40.0656 80.6034V82.996L33.4274 83V78.2349H35.6809V63.9881L33.4117 63.984L33.4195 66.3807L31.1739 66.3766L31.1779 71.1538H28.9244V75.8302L26.6709 75.8262V78.2229H20.0328V73.5625H22.2863V68.7773L24.5398 68.7733L24.5358 64.0001L26.6828 63.9961V59.3197L24.5358 59.3116L24.5398 56.915L22.2863 56.919V54.5224L20.0328 54.5264L20.0367 52.1419L17.7911 52.1459L17.7951 49.7493H11.1451V47.3566H6.64997V45.0808L4.40042 45.0728L4.39648 42.6883L2.14693 42.6802L2.15088 40.3037H0V37.9191H2.14298L2.15088 35.5145H0V33.2467H2.15088L2.14693 30.8461Z" fill="black"/>
</svg>
