<svg width="114" height="112" viewBox="0 0 114 112" fill="none" xmlns="http://www.w3.org/2000/svg">
<path d="M71.0241 106.586V98.3556L68.3886 98.3591L68.3921 90.1075H65.8887V82.0059L63.3746 82.0023V76.4702L60.8819 76.463L60.8712 73.772H58.2571L58.2606 81.9987L55.7572 82.0094V90.0967L53.2574 90.1146V101.032L55.7572 101.039L55.7608 106.589H50.7254L50.729 101.057L48.2255 101.039V82.0023L50.729 81.9809L50.7254 76.4523L53.2431 76.4487V71.0596L50.7254 71.056L50.729 62.8293L48.2327 62.8257L48.222 60.1169L30.4588 60.1133L30.4624 68.3579L27.9447 68.3721V90.0824L30.4624 90.0967L30.4588 95.6252L32.9586 95.6324L32.9622 98.3413L35.5942 98.3377V103.748L30.4445 103.752V98.3556L27.934 98.352L27.9304 92.9485H25.427L25.4305 90.1075L22.795 90.111L22.7986 76.4702L20.2987 76.4666L20.2952 65.506H22.7986V60.1169L20.313 60.1133L20.3094 62.8222L17.7953 62.8293L17.7989 65.5275L15.2955 65.5203L15.299 71.0596L12.7956 71.056V73.7756L10.1672 73.7684L10.1601 76.4594L7.66381 76.4738L7.66738 81.9987L5.14968 82.013V103.723L7.66381 103.738L7.66738 109.284H2.63198L2.63555 103.752L0 103.745V76.4559L2.63555 76.4487V68.3507L7.64952 68.3436L7.64595 65.506H10.1494V57.4009H12.7813V49.1849L10.1494 49.1885V46.4725L7.64595 46.476L7.64952 43.7779H5.13182L5.13539 40.9404L2.63912 40.9368L2.62841 38.2244H5.13539V32.8209L10.1458 32.8173L10.1529 30.1192H17.781V27.2817H30.441L30.4481 24.605L27.934 24.5978L27.9304 21.889L22.795 21.8925L22.7986 19.1908L20.2916 19.1944L20.2987 16.3533L17.7882 16.3497L17.7775 13.6551H12.7885L12.7813 10.9427L10.1458 10.9498L10.1494 8.24452L7.64595 8.25168L7.64952 5.54998H5.13182L5.13539 2.71601L2.63912 2.70885L2.63198 0H15.2955L15.299 2.69812L25.4448 2.69455L25.4377 5.52851L32.9551 5.53925L32.9658 8.23379L35.5942 8.22668V10.932L38.094 10.9248V13.6408L40.5975 13.6372L40.5903 16.339L43.1116 16.3354L43.108 19.1729L45.6079 19.1801L45.6114 21.8746L48.2398 21.8675V24.5871L50.729 24.5835V19.1944L48.2255 19.1908V13.6551L45.5936 13.6623V10.9427L43.0902 10.9463L43.0937 5.55351L40.576 5.54998V0H43.1116L43.108 2.69812L48.2434 2.69455L48.2398 5.53567H53.2538L53.2574 8.23026L55.7537 8.23737L55.7572 10.9248L58.2571 10.932V13.6444L60.8926 13.6372L60.889 16.339L63.3924 16.3318L63.3889 19.1729L65.9066 19.1872V27.2924L63.3889 27.2996V32.8138L65.903 32.8209L65.9066 35.5155L71.0348 35.5119L71.0384 38.2244H76.0559V40.9225H88.6801L88.6909 38.2422L86.1767 38.2387L86.1696 35.5298H83.6697L83.6733 30.1371L81.0378 30.1406V24.5835H83.6876V27.2817H88.7051L88.7016 30.1156L91.2014 30.1299V35.5119H93.8334L93.837 38.2244H101.333V32.8138L103.836 32.8173V30.1192L108.968 30.1227L108.965 27.2817H114V32.8316H111.497L111.504 35.5298H108.982V38.2458L106.483 38.2387V40.9404L103.851 40.9368V43.76H106.483V49.1885H103.851V60.1169H96.319V57.4187H93.8155L93.8191 54.7206H86.1875V57.4187L78.5522 57.4151L78.5558 60.1169L73.5418 60.1133L73.5347 62.8293L65.9066 62.8257V76.4451L68.4064 76.4559L68.4028 81.9844L71.0384 81.988V92.9307H73.5382V101.032L76.0559 101.039L76.0524 106.568L78.5522 106.579V111.993L73.524 112V106.589L71.0241 106.586Z" fill="black"/>
</svg>
