<svg width="101" height="82" viewBox="0 0 101 82" fill="none" xmlns="http://www.w3.org/2000/svg">
<path d="M58.9972 79.782V75.3414L56.5493 75.3367L56.5542 70.9007H54.1063L54.1111 68.6781H51.7992V66.4554L44.4458 66.4601L44.4507 68.6781L42.0028 68.6828L42.0076 75.3367L39.4043 75.3414L39.4092 79.7773H36.9564L36.9661 82H32.0898V75.3367H29.6419L29.6467 68.6781L27.1843 68.6828V75.3367L24.7364 75.3414L24.7412 82H19.7143V79.7773H17.2664L17.2713 75.3367H14.8234L14.8282 66.4601L12.3803 66.4507V44.2663L9.93243 44.2569L9.93729 35.5018L7.4894 35.5064V33.2791L5.04636 33.2884L5.0415 31.0611L0.00485427 31.0658L0 28.8572L2.45275 28.8618L2.44789 26.6205L0 26.6298V24.4165L2.45275 24.4212L2.44789 22.1798L0 22.1892L0.00485427 19.9805H2.44789V8.88128H5.05121L5.0415 6.65862L7.49425 6.6633L7.4894 4.44064H9.92272L9.913 6.65862H12.3658L12.3609 8.88128H14.8088V11.0993H22.1622L22.1573 8.87661L24.7607 8.88128L24.7558 6.65862L27.2037 6.6633L27.1988 4.43597L29.6516 4.44064L29.6419 2.21798L32.0946 2.22266L32.0898 0H34.5231L34.5134 2.21798H36.9661L36.9613 6.65862L39.4092 6.6633L39.4043 17.7532L42.0271 17.7626L42.0174 15.5399H44.4653L44.475 13.3172H66.4623L66.4672 15.5446L71.3581 15.5352L71.3533 17.7626L76.2685 17.7579L76.2588 15.5399H78.8669L78.8572 13.3172H81.31L81.3003 11.0993H83.753L83.7482 6.65862H86.2009L86.1912 4.44064H88.644L88.6342 2.21798H91.087L91.0821 0H98.5521V2.21798L101 2.22266V8.86258H98.5521L98.557 13.3079L95.9585 13.3032V17.7439L93.5106 17.7392L93.5155 19.9665L91.0676 19.9618V22.1892L88.6245 22.1798V24.4072L86.1766 24.4025L86.1815 26.6251H83.7336V33.2838H81.2857L81.2906 44.2569L78.8427 44.2616V57.5928L81.2906 57.5882V59.8108L83.7336 59.8155V75.332L81.2857 75.3367L81.2906 79.7773H76.2636V75.3414L73.8157 75.3367L73.8206 70.9007H71.3727L71.3775 68.6781H68.9248L68.9345 66.4601H66.4672V75.3367H64.0193L64.0241 79.7773L58.9972 79.782Z" fill="black"/>
</svg>
