<svg width="119" height="105" viewBox="0 0 119 105" fill="none" xmlns="http://www.w3.org/2000/svg">
<path d="M118.095 77.44V82.7679L113.186 82.8085V85.4825L110.482 85.4775V88.1668H102.363V90.851H94.3918L94.3816 93.5302L91.6785 93.5403L91.6682 96.2195H83.5692V98.9037H80.8814V96.2245L78.1578 96.2093V98.9037H70.0382V101.441H67.4938V98.8986L64.7702 98.9138V101.441H62.0569L62.0671 104.125H59.3692V101.436H51.224V104.12H32.466L32.4609 101.431H29.7271L29.7373 104.12H27.0393L27.0444 101.431H24.3106L24.3209 104.12H21.6229L21.628 101.431H18.8942L18.9044 104.12H16.2218L16.232 101.436H13.5187V98.9088L10.7951 98.8935V101.436H8.10732L8.09708 98.9037H0.131085L0.13621 96.2347H18.8942V98.9189L21.628 98.9291V96.2398H24.3362V88.1871H27.0444V74.7659H24.3157V82.8135H21.6075V85.4978H24.3209V88.1617L21.6126 88.1769V93.5352H0.141335L0.125977 90.8612L2.69597 90.8713L2.68574 88.182H5.38373L5.3786 90.8713H8.11244V88.182H16.2371V85.4978H18.9351V82.8085H16.2422V80.1445H18.9351V72.0969H21.6434L21.6485 69.3924H18.9351V66.8807H21.6485V58.828H24.3618L24.3567 56.1235H21.6485V48.091H18.9402V40.0587H21.6485L21.6536 37.3541H18.9402V34.6902L21.6485 34.7003V32.1379L18.9402 32.143V26.7694H16.232V29.4587L13.5238 29.4536V34.675H2.70622V26.7948L5.41957 26.7897V21.4263H8.13291L8.12268 18.732L5.41957 18.7218V16.0782H8.12268L8.13291 13.3787H5.41444V10.7148H8.11755L8.1278 8.01025H5.40933V5.34632H8.11244V2.66208L10.8156 2.65194V0.125H13.5084V8.03054L16.232 8.01025V0.125H18.9044L18.9146 2.657H21.6126L21.6229 5.34124H24.3209L24.3311 8.02547H27.0291L27.0393 10.7097H29.7373L29.7476 13.3939H32.466V10.7097H35.0053V13.3787H32.4456L32.4558 16.0782H35.0104L35.0002 18.7522H37.7289V16.0782H40.4218V18.732H37.7135L37.7084 21.4365H40.4218L40.4166 24.1207H43.1505V21.4314H45.8434V24.1004H43.1351L43.13 26.8049L45.8434 26.7948V29.4689L43.1351 29.4587V32.1683L45.8434 32.1633V34.7054L48.5669 34.6953V32.1633H51.2445V34.6953L53.9732 34.7003V32.1633H56.6609V34.6953L59.3896 34.7003V32.1633H62.0774V34.6953L64.8061 34.7003V32.1633H67.4938V34.6953H70.0638V32.1633H72.7567V34.7003L75.4649 34.6902V37.3795H83.5896V40.0485L80.8814 40.0434V42.753L83.5948 42.7429V45.4373L86.2825 45.4271L86.2927 48.1113H88.9959V50.7651L86.2927 50.7753L86.2825 53.4697H88.9959V56.1336L86.2927 56.1437L86.2825 58.8381H88.9959V61.5021L86.2927 61.5122L86.2825 64.2066H88.9959V66.8705L86.2876 66.8857V74.7913L91.7194 74.7964V72.1071H97.1154V74.7761H94.4072V77.4603H86.2825L86.2927 80.1598L88.9959 80.1699V82.8338H86.2825V85.5181H94.4123V88.2023L97.141 88.2074V85.5181H105.112V82.8541L107.815 82.844V80.1699H115.935L115.945 77.4958L118.126 77.4704L118.095 77.44ZM70.0434 82.8186V80.1395L72.7465 80.1293V72.0715H70.0382V69.4076L72.7465 69.4025V66.8654L70.0382 66.8553V58.8178L67.4836 58.8026V56.1133L64.76 56.1285V58.8026L62.0518 58.8128V61.4919H59.3589V58.7975L56.6353 58.8128V61.4868H53.9424V58.7925L51.2189 58.8077V61.4818H48.5465V58.8026L45.8382 58.7925V56.1184L43.1095 56.1032V58.7975L40.4013 58.7874V61.4767L37.6931 61.4716V66.8451H34.9848V72.0665H32.4199L32.4353 74.7608H34.9848V77.4299H32.4251V85.4622L29.722 85.4775L29.7117 88.1718H32.4302V90.8561H40.4218L40.4166 88.1718H43.1147L43.1095 90.8612H45.8434V88.1718H53.9527V85.4876H67.4887V82.8186H70.0485H70.0434ZM78.1681 64.0899V61.4919L75.4393 61.4767V64.1863H78.0605L78.1629 64.0899H78.1681ZM78.2448 64.1609L78.1476 64.2675V66.8553L75.4393 66.8502V69.4076L78.1476 69.4025V72.0715L75.4342 72.0665V74.7761H78.1476V85.4724H72.7362V88.1566H64.7702L64.76 90.8409H62.0723V88.1516L59.3487 88.1668V90.8409H51.2291L51.2137 93.5251H32.4507L32.4302 96.2245H34.9951V98.9088H48.5516V96.2245H51.2291L51.2189 98.9088H53.9527L53.9476 96.2245H56.6456L56.6353 98.9088H59.3692V96.2245H72.7516V93.5403H80.8763V90.8561H83.5896L83.5845 85.4825L80.8763 85.4673V74.7811L83.5794 74.7659L83.5896 72.0715H80.8763V64.1812L78.25 64.1609H78.2448Z" fill="black" stroke="#231F20" stroke-width="0.25" stroke-miterlimit="10"/>
</svg>
