<svg width="110" height="92" viewBox="0 0 110 92" fill="none" xmlns="http://www.w3.org/2000/svg">
<path d="M66.4416 79.4305V72.046H73.3063L73.3198 74.4806H75.5753V81.9422H73.3097L73.3164 84.52L71.071 84.531L71.0643 86.9656H61.8291L61.8224 84.531L59.577 84.52V81.9459L57.3147 81.9385V69.5894L59.577 69.582V64.5513H57.3147L57.3046 62.0947H41.2825L41.2758 67.1291L38.9019 67.1364V86.9619L36.6565 86.9656V89.4222H34.3909V92H27.5228V86.9839H29.7885L29.7817 84.542H32.1624L32.159 79.5223L34.4078 79.5297V74.4732H32.159V67.1364H18.3857L18.3722 69.5783H16.0017V72.0349L13.7496 72.0276V74.4952L16.0017 74.4879V79.5297H18.3891V72.0533H25.2572V79.5113H22.8799V81.9569H20.6176V84.5347H13.7665V81.9569H11.5008V79.515H9.25543V67.1658H11.5076L11.5008 64.5843L13.7631 64.577L13.7699 62.124H25.2741V59.6821H27.5262V57.086H25.2741V52.1874H22.8968L22.9036 49.6133H20.6345L20.6413 47.1677L18.3925 47.1751L18.3857 44.7148H6.88832L6.87817 42.2802L4.61926 42.2728L4.62603 39.6914L2.37388 39.6987V37.2385H0V27.3422H2.37726V19.8696H4.62603V14.8535L6.87141 14.8462V17.4313L9.24529 17.4276V19.8696H18.3925V17.424L20.6447 17.4276L20.6379 14.8425H22.89L22.8867 19.8659H25.2639L25.2605 27.3385H27.5025L27.5194 32.2371H36.6633L36.687 29.7952H73.3029L73.33 32.2334H77.8309L77.8275 34.8149H80.2081L80.2047 37.2531H84.7158L84.7226 39.7097H93.9881L93.9949 37.2531H98.506L98.4992 34.8075L100.88 34.8149L100.873 32.2297H103.125V27.3349H105.391V22.3005L103.125 22.2931V12.3638H100.876V9.91826L98.5026 9.92193V7.34046H84.7192V9.92193L82.4704 9.91458V12.3565L80.2081 12.3675V17.3946H77.8342V22.3115H80.2115V27.3275H82.4704L82.4772 29.7841H93.9881L93.9949 27.3239H96.2437V17.3909H93.9949V14.8095H89.3384L89.3418 17.3873L87.0931 17.3983V22.3005L89.3554 22.3078V19.8439L91.6041 19.8512V27.3092H84.7361L84.7293 24.8746L82.4839 24.8599V14.8315L84.7293 14.8168V12.3638L87.1066 12.3712V9.92561H96.2234V12.3675H98.4857V14.8241H100.86V27.2945H98.4857V32.193H93.9746V34.7708H82.4873V32.193H80.2183V29.7474L77.8444 29.7548V27.3018L75.5956 27.2908V22.2784L73.3333 22.2711V12.3602L75.599 12.3565L75.5922 9.91826H77.8478L77.841 7.34046H80.2183V4.89855H84.7226L84.7293 2.44193H89.352V0H96.22V2.44193H100.856L100.866 4.89855H105.371V9.91826H107.623V17.3946H110V29.7474H107.623L107.626 34.7708H105.377V37.2091L103.115 37.2164V39.6694H100.863L100.87 42.2508H98.4924V44.6891L96.2301 44.6964V47.1494H93.9746L93.9814 49.5913H91.6007L91.6041 54.622H89.3384V62.0983H91.6007V64.5586H96.22V72.0239L98.4823 72.0386V86.9509L96.2234 86.9619V89.4112H89.352V81.9569L91.6143 81.9422V72.0203H87.1066L87.0964 69.5637H71.0947L71.0846 67.1217L66.4416 67.1291L66.4349 69.56L64.1895 69.5783V79.5003L66.374 79.5186L66.4518 79.4195L66.4416 79.4305Z" fill="black"/>
</svg>
