<svg width="195" height="224" viewBox="0 0 195 224" fill="none" xmlns="http://www.w3.org/2000/svg">
<mask id="path-1-outside-1_224_22323" maskUnits="userSpaceOnUse" x="29.0059" y="0" width="166" height="177" fill="black">
<rect fill="white" x="29.0059" width="166" height="177"/>
<path d="M37.3548 66.4354L33.0059 66.4191V61.6089L37.3548 61.5925V37.6391L41.9195 37.631L41.9115 32.8126H46.4523L46.4443 37.6391L50.9931 37.631L50.9851 42.482H55.5499L55.5579 47.0966H59.8988L59.9068 51.9394H73.5851V47.0966L78.1499 47.1047V42.4738L82.7146 42.482L82.7066 37.6391L87.0635 37.631L87.0555 32.8126H91.5963L91.5883 37.6391H96.1611L96.1531 61.6089H100.702L100.694 66.4273L96.1611 66.4191L96.1531 71.3027L100.694 71.2946V75.8847L96.1531 75.8765L96.1611 80.752L105.283 80.7602V75.9092H114.18L114.196 71.2946L123.294 71.3027L123.286 66.4517L127.859 66.4599L127.851 61.6007L136.764 61.6089L136.772 56.7823H168.438L168.462 51.9394L172.995 51.9476V47.0884L177.559 47.0966V42.4738L182.124 42.482V27.9453H177.551L177.559 23.0942L172.995 23.1024V18.4797L168.462 18.4878L168.446 13.6368H150.411L150.395 18.4878L145.862 18.4797V32.8207L150.403 32.8126L150.395 37.6391H163.897V27.9453H159.516L159.524 32.7881H154.983L154.991 27.9371L150.419 27.9453L150.427 23.1187L154.983 23.135V18.5123H163.865L163.873 23.1268L168.43 23.1187V27.9779L172.971 27.9697V37.6065H168.43V42.4575L163.873 42.4494L163.865 47.0721H150.427L150.419 42.4494L141.321 42.4575L141.329 32.7963L136.764 32.7881V18.5123H141.329L141.321 13.6613H145.894L145.878 8.81841L150.427 8.82654V4H172.963L172.971 8.82654L177.535 8.81841L177.527 13.6613H182.1L182.092 18.5123H186.441V23.1268L191.006 23.135V47.064L186.441 47.0721V56.7578H182.084L182.092 61.5762L177.535 61.5925L177.527 71.2864L182.092 71.3109V109.532L177.527 109.565L177.535 152.857L172.971 152.881V157.488L168.43 157.48V162.331H154.983V152.898H159.556L159.548 148.055L163.897 148.047V128.675L159.548 128.667V124.044L154.983 124.061V119.193L150.395 119.234L150.403 148.022H136.764V138.393L141.321 138.377V124.069L136.764 124.052L136.756 119.218H132.391V124.052L127.835 124.061L127.827 128.667L123.262 128.675L123.27 138.361H118.729V167.141L114.164 167.149V171.992L100.718 172V162.355H105.283V133.518L100.686 133.51L100.702 138.361L96.1531 138.353L96.1611 148.022H91.5963V157.488L87.0316 157.48V162.331H73.5851V152.898H78.1499V143.212L82.7146 143.204L82.7066 133.542L87.0555 133.534V124.069L82.7066 124.052L82.7146 119.201L78.1499 119.21V114.359L73.5851 114.367L73.5931 109.54L69.0443 109.548L69.0523 104.697H55.5818V99.8544H46.4763V95.248L41.9195 95.2317L41.9115 90.4051L37.3548 90.3888L37.3628 85.5786H33.0059V80.752H37.3468L37.3628 75.8847H33.0059V71.2946H37.3628L37.3548 66.4354Z"/>
</mask>
<g filter="url(#filter0_i_224_22323)">
<path d="M37.3548 66.4354L33.0059 66.4191V61.6089L37.3548 61.5925V37.6391L41.9195 37.631L41.9115 32.8126H46.4523L46.4443 37.6391L50.9931 37.631L50.9851 42.482H55.5499L55.5579 47.0966H59.8988L59.9068 51.9394H73.5851V47.0966L78.1499 47.1047V42.4738L82.7146 42.482L82.7066 37.6391L87.0635 37.631L87.0555 32.8126H91.5963L91.5883 37.6391H96.1611L96.1531 61.6089H100.702L100.694 66.4273L96.1611 66.4191L96.1531 71.3027L100.694 71.2946V75.8847L96.1531 75.8765L96.1611 80.752L105.283 80.7602V75.9092H114.18L114.196 71.2946L123.294 71.3027L123.286 66.4517L127.859 66.4599L127.851 61.6007L136.764 61.6089L136.772 56.7823H168.438L168.462 51.9394L172.995 51.9476V47.0884L177.559 47.0966V42.4738L182.124 42.482V27.9453H177.551L177.559 23.0942L172.995 23.1024V18.4797L168.462 18.4878L168.446 13.6368H150.411L150.395 18.4878L145.862 18.4797V32.8207L150.403 32.8126L150.395 37.6391H163.897V27.9453H159.516L159.524 32.7881H154.983L154.991 27.9371L150.419 27.9453L150.427 23.1187L154.983 23.135V18.5123H163.865L163.873 23.1268L168.43 23.1187V27.9779L172.971 27.9697V37.6065H168.43V42.4575L163.873 42.4494L163.865 47.0721H150.427L150.419 42.4494L141.321 42.4575L141.329 32.7963L136.764 32.7881V18.5123H141.329L141.321 13.6613H145.894L145.878 8.81841L150.427 8.82654V4H172.963L172.971 8.82654L177.535 8.81841L177.527 13.6613H182.1L182.092 18.5123H186.441V23.1268L191.006 23.135V47.064L186.441 47.0721V56.7578H182.084L182.092 61.5762L177.535 61.5925L177.527 71.2864L182.092 71.3109V109.532L177.527 109.565L177.535 152.857L172.971 152.881V157.488L168.43 157.48V162.331H154.983V152.898H159.556L159.548 148.055L163.897 148.047V128.675L159.548 128.667V124.044L154.983 124.061V119.193L150.395 119.234L150.403 148.022H136.764V138.393L141.321 138.377V124.069L136.764 124.052L136.756 119.218H132.391V124.052L127.835 124.061L127.827 128.667L123.262 128.675L123.27 138.361H118.729V167.141L114.164 167.149V171.992L100.718 172V162.355H105.283V133.518L100.686 133.51L100.702 138.361L96.1531 138.353L96.1611 148.022H91.5963V157.488L87.0316 157.48V162.331H73.5851V152.898H78.1499V143.212L82.7146 143.204L82.7066 133.542L87.0555 133.534V124.069L82.7066 124.052L82.7146 119.201L78.1499 119.21V114.359L73.5851 114.367L73.5931 109.54L69.0443 109.548L69.0523 104.697H55.5818V99.8544H46.4763V95.248L41.9195 95.2317L41.9115 90.4051L37.3548 90.3888L37.3628 85.5786H33.0059V80.752H37.3468L37.3628 75.8847H33.0059V71.2946H37.3628L37.3548 66.4354Z" fill="url(#paint0_linear_224_22323)"/>
</g>
<path d="M37.3548 66.4354L33.0059 66.4191V61.6089L37.3548 61.5925V37.6391L41.9195 37.631L41.9115 32.8126H46.4523L46.4443 37.6391L50.9931 37.631L50.9851 42.482H55.5499L55.5579 47.0966H59.8988L59.9068 51.9394H73.5851V47.0966L78.1499 47.1047V42.4738L82.7146 42.482L82.7066 37.6391L87.0635 37.631L87.0555 32.8126H91.5963L91.5883 37.6391H96.1611L96.1531 61.6089H100.702L100.694 66.4273L96.1611 66.4191L96.1531 71.3027L100.694 71.2946V75.8847L96.1531 75.8765L96.1611 80.752L105.283 80.7602V75.9092H114.18L114.196 71.2946L123.294 71.3027L123.286 66.4517L127.859 66.4599L127.851 61.6007L136.764 61.6089L136.772 56.7823H168.438L168.462 51.9394L172.995 51.9476V47.0884L177.559 47.0966V42.4738L182.124 42.482V27.9453H177.551L177.559 23.0942L172.995 23.1024V18.4797L168.462 18.4878L168.446 13.6368H150.411L150.395 18.4878L145.862 18.4797V32.8207L150.403 32.8126L150.395 37.6391H163.897V27.9453H159.516L159.524 32.7881H154.983L154.991 27.9371L150.419 27.9453L150.427 23.1187L154.983 23.135V18.5123H163.865L163.873 23.1268L168.43 23.1187V27.9779L172.971 27.9697V37.6065H168.43V42.4575L163.873 42.4494L163.865 47.0721H150.427L150.419 42.4494L141.321 42.4575L141.329 32.7963L136.764 32.7881V18.5123H141.329L141.321 13.6613H145.894L145.878 8.81841L150.427 8.82654V4H172.963L172.971 8.82654L177.535 8.81841L177.527 13.6613H182.1L182.092 18.5123H186.441V23.1268L191.006 23.135V47.064L186.441 47.0721V56.7578H182.084L182.092 61.5762L177.535 61.5925L177.527 71.2864L182.092 71.3109V109.532L177.527 109.565L177.535 152.857L172.971 152.881V157.488L168.43 157.48V162.331H154.983V152.898H159.556L159.548 148.055L163.897 148.047V128.675L159.548 128.667V124.044L154.983 124.061V119.193L150.395 119.234L150.403 148.022H136.764V138.393L141.321 138.377V124.069L136.764 124.052L136.756 119.218H132.391V124.052L127.835 124.061L127.827 128.667L123.262 128.675L123.27 138.361H118.729V167.141L114.164 167.149V171.992L100.718 172V162.355H105.283V133.518L100.686 133.51L100.702 138.361L96.1531 138.353L96.1611 148.022H91.5963V157.488L87.0316 157.48V162.331H73.5851V152.898H78.1499V143.212L82.7146 143.204L82.7066 133.542L87.0555 133.534V124.069L82.7066 124.052L82.7146 119.201L78.1499 119.21V114.359L73.5851 114.367L73.5931 109.54L69.0443 109.548L69.0523 104.697H55.5818V99.8544H46.4763V95.248L41.9195 95.2317L41.9115 90.4051L37.3548 90.3888L37.3628 85.5786H33.0059V80.752H37.3468L37.3628 75.8847H33.0059V71.2946H37.3628L37.3548 66.4354Z" stroke="black" stroke-width="8" mask="url(#path-1-outside-1_224_22323)"/>
<path d="M32.2129 177.309C32.9115 179.863 33.8692 183.201 35.0137 186.749C36.2424 190.558 37.6938 194.64 39.2754 198.267C40.8364 201.846 42.6002 205.163 44.5049 207.307C49.0961 212.473 54.487 214.843 58.707 215.918C59.4003 216.095 60.0635 216.235 60.6875 216.349C58.7944 217.605 56.3772 218.967 53.7002 219.909C50.608 220.997 47.2834 221.487 44.0527 220.726C40.869 219.976 37.5573 217.961 34.5244 213.638C27.4819 203.599 18.4991 201.686 11.3359 202.371C8.13902 202.677 5.32024 203.494 3.19824 204.29C6.14765 196.912 12.2224 191.876 18.4668 187.57C22.0208 185.12 25.8284 182.78 28.7139 180.526C29.9872 179.532 31.198 178.469 32.2129 177.309Z" fill="url(#paint1_linear_224_22323)" stroke="black" stroke-width="4"/>
<defs>
<filter id="filter0_i_224_22323" x="29.0059" y="0" width="166" height="176.002" filterUnits="userSpaceOnUse" color-interpolation-filters="sRGB">
<feFlood flood-opacity="0" result="BackgroundImageFix"/>
<feBlend mode="normal" in="SourceGraphic" in2="BackgroundImageFix" result="shape"/>
<feColorMatrix in="SourceAlpha" type="matrix" values="0 0 0 0 0 0 0 0 0 0 0 0 0 0 0 0 0 0 127 0" result="hardAlpha"/>
<feOffset/>
<feGaussianBlur stdDeviation="20.55"/>
<feComposite in2="hardAlpha" operator="arithmetic" k2="-1" k3="1"/>
<feColorMatrix type="matrix" values="0 0 0 0 0.207989 0 0 0 0 0.164762 0 0 0 0 0.143149 0 0 0 1 0"/>
<feBlend mode="normal" in2="shape" result="effect1_innerShadow_224_22323"/>
</filter>
<linearGradient id="paint0_linear_224_22323" x1="112.006" y1="4" x2="112.006" y2="172" gradientUnits="userSpaceOnUse">
<stop offset="0.245192" stop-color="white"/>
<stop offset="0.826923" stop-color="#685248"/>
</linearGradient>
<linearGradient id="paint1_linear_224_22323" x1="22.5059" y1="190.5" x2="69.0059" y2="213.5" gradientUnits="userSpaceOnUse">
<stop stop-color="#747474"/>
<stop offset="1" stop-color="#DADADA"/>
</linearGradient>
</defs>
</svg>
